# xmcd
#
# Track frame offsets:
#	150
#	14905
#	30454
#	49451
#	68957
#	86816
#	103280
#	122042
#	139544
#	156785
#	172698
#	190596
#
# Disc length: 2799 seconds
#
# Revision: 0
# Processed by: cddbd v1.5.2PL0 Copyright (c) Steve Scherf et al.
# Submitted via: EZCDAudioConverter 1.2.1.1
#
DISCID=a20aed0c
DTITLE=The Band Perry - Pioneer
DYEAR=2013
DGENRE=Country
TTITLE0=Better Dig Two
TTITLE1=DONE.
TTITLE2=Don't Let Me Be Lonely
TTITLE3=Pioneer
TTITLE4=Forever Mine Nevermind
TTITLE5=Night Gone Wasted
TTITLE6=I Saw A Light
TTITLE7=Mother Like Mine
TTITLE8=Chainsaw
TTITLE9=I'm A Keeper
TTITLE10=Back To Me Without You
TTITLE11=End Of Time
EXTD=
EXTT0=
EXTT1=
EXTT2=
EXTT3=
EXTT4=
EXTT5=
EXTT6=
EXTT7=
EXTT8=
EXTT9=
EXTT10=
EXTT11=
PLAYORDER=
